<?xml version="1.0"?>
<svg xmlns="http://www.w3.org/2000/svg" xmlns:xlink="http://www.w3.org/1999/xlink" xmlns:svgjs="http://svgjs.com/svgjs" version="1.1" width="512" height="512" x="0" y="0" viewBox="0 0 480 480.00005" style="enable-background:new 0 0 512 512" xml:space="preserve" class=""><g><path xmlns="http://www.w3.org/2000/svg" d="m72 403.3125v68.6875c0 4.417969 3.582031 8 8 8h88c4.417969 0 8-3.582031 8-8v-128c0-2.121094-.84375-4.15625-2.34375-5.65625l-57.375-57.375c-6.132812-6.167969-14.609375-9.414062-23.289062-8.921875-8.683594.492187-16.738282 4.683594-22.128907 11.503906l-6.863281-6.863281v-116.6875c0-17.671875-14.328125-32-32-32s-32 14.328125-32 32v168c0 2.121094.84375 4.15625 2.34375 5.65625zm-56-243.3125c0-8.835938 7.164062-16 16-16s16 7.164062 16 16v120c0 2.121094.84375 4.15625 2.34375 5.65625l13.960938 13.960938c-.097657 1.007812-.304688 1.976562-.304688 3.007812-.023438 8.128906 3.210938 15.925781 8.976562 21.65625l33.367188 33.375 11.3125-11.3125-33.375-33.375c-4.179688-4.1875-5.425781-10.476562-3.160156-15.941406 2.265625-5.460938 7.597656-9.023438 13.511718-9.027344 3.878907-.007812 7.605469 1.53125 10.34375 4.28125l55.023438 55.03125v116.6875h-72v-64c0-2.121094-.84375-4.15625-2.34375-5.65625l-69.65625-69.65625zm0 0" fill="#c06c84" data-original="#000000" style="" class=""/><path xmlns="http://www.w3.org/2000/svg" d="m448 128c-17.671875 0-32 14.328125-32 32v116.6875l-6.863281 6.863281c-5.390625-6.824219-13.449219-11.015625-22.132813-11.507812-8.683594-.496094-17.160156 2.753906-23.292968 8.925781l-57.367188 57.375c-1.5 1.5-2.34375 3.535156-2.34375 5.65625v128c0 4.417969 3.582031 8 8 8h88c4.417969 0 8-3.582031 8-8v-68.6875l69.65625-69.65625c1.5-1.5 2.34375-3.535156 2.34375-5.65625v-168c0-17.671875-14.328125-32-32-32zm16 196.6875-69.65625 69.65625c-1.5 1.5-2.34375 3.535156-2.34375 5.65625v64h-72v-116.6875l55.023438-55.03125c4.183593-4.183594 10.476562-5.433594 15.945312-3.171875 5.464844 2.265625 9.03125 7.597656 9.03125 13.515625-.011719 3.878906-1.550781 7.59375-4.289062 10.34375l-33.367188 33.375 11.3125 11.3125 33.367188-33.375c5.765624-5.730469 9-13.527344 8.976562-21.65625 0-1.03125-.207031-2-.304688-3.007812l13.960938-13.960938c1.5-1.5 2.34375-3.535156 2.34375-5.65625v-120c0-8.835938 7.164062-16 16-16s16 7.164062 16 16zm0 0" fill="#c06c84" data-original="#000000" style="" class=""/><path xmlns="http://www.w3.org/2000/svg" d="m235.945312 49.039062c-2.511718-1.421874-5.59375-1.382812-8.066406.105469l-76.589844 45.953125-7.289062-87.761718c-.347656-4.15625-3.828125-7.351563-8-7.335938h-32c-4.171875-.015625-7.652344 3.179688-8 7.335938l-7.359375 88.664062h-.640625c-4.417969 0-8 3.582031-8 8v144c0 4.417969 3.582031 8 8 8h304c4.417969 0 8-3.582031 8-8v-192c0-2.882812-1.550781-5.542969-4.0625-6.960938-2.507812-1.421874-5.585938-1.378906-8.058594.105469l-67.878906 40.71875v-33.863281c0-2.882812-1.550781-5.542969-4.0625-6.960938-2.507812-1.421874-5.585938-1.378906-8.058594.105469l-67.878906 40.71875v-33.863281c0-2.882812-1.550781-5.539062-4.054688-6.960938zm-124.585937-33.039062h17.28125l6.664063 80h-30.609376zm32.640625 224h-48v-32h48zm0-48h-48v-32h48zm0-48h-48v-32h48zm160-73.863281v33.863281c0 2.882812 1.550781 5.542969 4.0625 6.960938 2.507812 1.421874 5.585938 1.378906 8.058594-.105469l67.878906-40.71875v169.863281h-224v-131.472656l64-38.398438v33.871094c0 2.882812 1.550781 5.542969 4.0625 6.960938 2.507812 1.421874 5.585938 1.378906 8.058594-.105469zm0 0" fill="#c06c84" data-original="#000000" style="" class=""/><path xmlns="http://www.w3.org/2000/svg" d="m224 152h-32c-4.417969 0-8 3.582031-8 8v32c0 4.417969 3.582031 8 8 8h32c4.417969 0 8-3.582031 8-8v-32c0-4.417969-3.582031-8-8-8zm-8 32h-16v-16h16zm0 0" fill="#c06c84" data-original="#000000" style="" class=""/><path xmlns="http://www.w3.org/2000/svg" d="m256 200h32c4.417969 0 8-3.582031 8-8v-32c0-4.417969-3.582031-8-8-8h-32c-4.417969 0-8 3.582031-8 8v32c0 4.417969 3.582031 8 8 8zm8-32h16v16h-16zm0 0" fill="#c06c84" data-original="#000000" style="" class=""/><path xmlns="http://www.w3.org/2000/svg" d="m320 200h32c4.417969 0 8-3.582031 8-8v-32c0-4.417969-3.582031-8-8-8h-32c-4.417969 0-8 3.582031-8 8v32c0 4.417969 3.582031 8 8 8zm8-32h16v16h-16zm0 0" fill="#c06c84" data-original="#000000" style="" class=""/></g></svg>
